<svg width="82" height="38" viewBox="0 0 82 38" fill="none" xmlns="http://www.w3.org/2000/svg">
<g clip-path="url(#clip0_144_682)">
<path d="M2.50049 31.1338C2.50049 31.1176 5.48125 28.5874 12.5103 28.5874C19.3378 28.5874 22.52 31.1176 22.52 31.1338H2.50049Z" fill="#F6CC90"/>
<path d="M12.5102 28.5874C12.0742 28.5874 11.6538 28.5972 11.2486 28.6155C17.2301 28.8917 20.0298 31.1186 20.0298 31.1338H22.52C22.52 31.1176 19.3378 28.5874 12.5102 28.5874Z" fill="#F0C17F"/>
<path d="M17.0558 10.9698C16.2414 13.3322 14.0467 13.7387 14.0467 13.7387C14.0467 13.7387 12.5925 11.9976 13.3858 9.69653C14.2213 7.27275 16.416 6.86621 16.416 6.86621C16.416 6.86621 17.8808 8.57671 17.0558 10.9698Z" fill="#C5E866"/>
<path d="M16.416 6.86621C16.416 6.86621 15.8359 6.97373 15.1588 7.40742C15.5309 8.09375 15.9921 9.38125 15.4445 10.9697C15.0505 12.1125 14.3336 12.7976 13.6983 13.2004C13.8847 13.5444 14.0467 13.7386 14.0467 13.7386C14.0467 13.7386 16.2414 13.3321 17.0558 10.9697C17.8808 8.57671 16.416 6.86621 16.416 6.86621Z" fill="#B2D94B"/>
<path d="M14.8676 22.076C13.5297 22.2661 12.5447 21.9928 12.5447 21.9928C12.5447 21.9928 11.6929 18.5746 14.3549 15.9041C17.159 13.0912 20.4955 14.0169 20.4955 14.0169C20.4955 14.0169 21.2274 16.807 19.2879 19.3997" fill="#9CC042"/>
<path d="M20.4955 14.0169C20.4955 14.0169 19.6008 13.7688 18.3488 13.92C18.687 13.9624 18.8841 14.0169 18.8841 14.0169C18.8841 14.0169 19.616 16.807 17.6766 19.3997L13.2563 22.076C13.2074 22.0829 13.159 22.0891 13.1111 22.0948C13.5282 22.1462 14.1464 22.1785 14.8676 22.076L19.2879 19.3997C21.2273 16.807 20.4955 14.0169 20.4955 14.0169Z" fill="#85AA18"/>
<path d="M9.35387 20.2833C11.7287 22.155 11.3235 24.8378 11.3235 24.8378C11.3235 24.8378 8.75929 25.8191 6.44621 23.996C4.00973 22.0757 4.41496 19.3929 4.41496 19.3929C4.41496 19.3929 6.94826 18.3873 9.35387 20.2833Z" fill="#C5E866"/>
<path d="M6.63061 16.423C9.02163 19.4694 12.4437 18.9456 12.4437 18.9456C12.4437 18.9456 13.6922 15.6522 11.3633 12.6849C8.9102 9.55937 5.48809 10.0832 5.48809 10.0832C5.48809 10.0832 4.20854 13.337 6.63061 16.423Z" fill="#9CC042"/>
<path d="M18.6695 23.4571C16.6178 24.8756 14.6099 23.8982 14.6099 23.8982C14.6099 23.8982 14.4673 21.6312 16.4657 20.2495C18.5708 18.7941 20.5786 19.7715 20.5786 19.7715C20.5786 19.7715 20.7479 22.0201 18.6695 23.4571Z" fill="#C5E866"/>
<path d="M20.5786 19.7715C20.5786 19.7715 19.532 19.2623 18.1578 19.5266C18.6591 19.6216 18.9672 19.7715 18.9672 19.7715C18.9672 19.7715 19.1365 22.0201 17.0581 23.4571C16.5018 23.8417 15.9489 24.0499 15.4382 24.1495C16.2129 24.2966 17.4331 24.3119 18.6694 23.4571C20.7478 22.0201 20.5786 19.7715 20.5786 19.7715Z" fill="#B2D94B"/>
<path d="M22.581 30.7204C21.8567 30.21 21.031 29.8298 20.207 29.5127C18.7203 28.9406 16.2461 28.262 12.8194 28.2231C12.8751 27.7492 13.0069 27.0685 13.3157 26.3105C13.6224 25.5576 14.0376 24.8785 14.5578 24.2751C14.8021 24.3757 15.4308 24.596 16.2525 24.596C17.0135 24.596 17.9397 24.4068 18.8777 23.7583C21.1032 22.2197 20.9513 19.8444 20.9438 19.744C20.934 19.6142 20.856 19.4993 20.7389 19.4423C20.7055 19.426 20.3888 19.2762 19.8883 19.1746C20.2964 18.534 20.5958 17.8387 20.7803 17.1009C20.8948 16.6426 20.1844 16.465 20.0697 16.9232C19.8752 17.7014 19.5376 18.4269 19.0663 19.082C18.2733 19.0633 17.2775 19.243 16.2575 19.9482C15.4972 20.4739 15.0224 21.1136 14.7262 21.725C14.0835 21.8068 13.5312 21.7767 13.157 21.7307C13.901 20.7271 15.8404 18.2947 18.0238 17.0243C18.4321 16.7867 18.0638 16.1536 17.6555 16.3912C15.5308 17.6274 13.6813 19.8281 12.79 20.9965C12.7386 19.8565 12.9362 17.846 14.6144 16.1626C15.7081 15.0654 17.0099 14.4297 18.4834 14.2731C19.2548 14.1912 19.8753 14.269 20.1843 14.3247C20.2168 14.5158 20.2568 14.8244 20.2636 15.2118C20.2719 15.6796 21.0043 15.674 20.996 15.1989C20.9827 14.4388 20.8551 13.9446 20.8497 13.924C20.8166 13.7979 20.719 13.6989 20.5934 13.664C20.5567 13.6539 19.6787 13.4157 18.4398 13.5413C17.2996 13.6569 15.6205 14.1159 14.0957 15.6455C13.9685 15.7731 13.8494 15.9024 13.7373 16.0328C13.9429 15.3996 14.1675 14.7147 14.397 14.0258C15.0603 13.8234 16.6985 13.1299 17.4021 11.0891C18.2853 8.52715 16.7595 6.7043 16.6941 6.62793C16.6092 6.52866 16.4777 6.48223 16.3493 6.50606C16.2511 6.52427 13.9344 6.9813 13.0395 9.5771C12.2965 11.7323 13.3553 13.4166 13.6789 13.8606C13.4654 14.5021 13.2569 15.1379 13.0643 15.7308C12.916 14.74 12.5294 13.5775 11.6514 12.4588C10.3176 10.7593 8.70425 10.1046 7.58565 9.85459C6.37022 9.58296 5.47041 9.71543 5.43267 9.72124C5.30371 9.74097 5.19502 9.82783 5.14727 9.94922C5.13696 9.97539 4.89429 10.6011 4.81148 11.5606C4.77095 12.0313 5.50059 12.0941 5.54121 11.6236C5.58784 11.0831 5.6915 10.6612 5.76084 10.4257C6.07471 10.4071 6.6999 10.4035 7.45557 10.5761C8.90049 10.9063 10.1183 11.6918 11.0752 12.911C11.9818 14.0662 12.4313 15.4062 12.4111 16.894C12.4045 17.3788 12.3464 17.8015 12.2823 18.1263C10.8336 15.4282 8.78237 13.3554 8.69243 13.2651C8.35903 12.9306 7.84038 13.4476 8.17368 13.7821C8.19531 13.8039 10.3098 15.9421 11.7106 18.6114C11.3833 18.6039 10.9587 18.5678 10.4825 18.4625C9.04863 18.1452 7.84956 17.383 6.91865 16.1969C6.27051 15.371 5.84136 14.4544 5.64312 13.4727C5.54966 13.0097 4.83164 13.1546 4.9252 13.6177C5.14624 14.7125 5.6231 15.7324 6.34253 16.6491C7.64502 18.3086 9.24419 18.9439 10.3563 19.1846C10.9105 19.3045 11.4816 19.3615 12.0487 19.3429V20.6618V20.6837V25.5096C11.9382 25.2713 11.8189 25.0458 11.6932 24.8323C11.7429 24.3988 11.9235 21.8422 9.58052 19.9956C7.03833 17.992 4.39121 19.0082 4.27974 19.0525C4.15869 19.1005 4.07222 19.2093 4.05278 19.3382C4.03496 19.4563 3.64531 22.2548 6.21943 24.2836C7.41504 25.2259 8.66441 25.4719 9.64307 25.4719C10.2781 25.4719 10.7989 25.3683 11.1173 25.2842C11.6272 26.1747 11.9286 27.1576 12.0191 28.2258C10.1239 28.2579 8.35576 28.4754 6.75737 28.8749C6.29907 28.9894 6.47661 29.6999 6.93496 29.5855C8.48423 29.1983 10.2027 28.9878 12.0487 28.9578V29.7996C12.0487 30.2719 12.7812 30.2719 12.7812 29.7996V28.9557C17.1003 28.9986 19.8606 30.0561 21.2333 30.7676H3.74746C4.10337 30.5783 4.55903 30.3638 5.1209 30.1502C5.5624 29.9822 5.302 29.2975 4.86055 29.4655C3.94839 29.8125 3.29888 30.1645 2.91455 30.3986C2.13428 30.8741 2.13428 30.9887 2.13428 31.1338C2.13428 31.3361 2.29819 31.5 2.50049 31.5H22.52C23.0767 31.5 22.8576 30.9154 22.581 30.7204ZM16.674 20.5507C18.2192 19.4824 19.6867 19.8346 20.2145 20.0194C20.1939 20.5851 19.9893 22.0994 18.4612 23.1559C17.0757 24.1139 15.7278 23.884 15.1137 23.6965C15.8356 23.0209 16.7136 22.46 17.744 22.0185C18.1782 21.8325 17.8898 21.1593 17.4556 21.3453C16.5259 21.7436 15.7596 22.2178 15.127 22.7259C15.3174 22.0463 15.7403 21.1962 16.674 20.5507ZM13.9116 22.5096C14.0756 22.5096 14.2504 22.5037 14.4337 22.4903C14.3131 22.9088 14.2665 23.2769 14.2498 23.5354C13.5563 24.2715 13.0916 25.031 12.7812 25.7039V22.4167C13.038 22.4609 13.4294 22.5096 13.9116 22.5096ZM13.7319 9.81587C14.3452 8.03711 15.7343 7.44761 16.2695 7.28228C16.5874 7.75088 17.3159 9.09175 16.7096 10.8504C16.2557 12.1673 15.3446 12.8171 14.6995 13.1246C15.1751 11.7191 15.6449 10.3876 15.9858 9.55171C16.1642 9.11431 15.4859 8.8377 15.3076 9.27515C14.952 10.1473 14.4674 11.5211 13.9812 12.9593C13.6481 12.3221 13.2614 11.1808 13.7319 9.81587ZM6.67285 23.7084C5.73892 22.9723 5.13604 22.0355 4.88091 20.9238C4.75581 20.3788 4.74907 19.9215 4.75986 19.6663C5.38408 19.4914 7.29829 19.1295 9.12715 20.5709C10.0352 21.2866 10.6199 22.2087 10.865 23.3115C10.9006 23.4718 10.926 23.6244 10.9439 23.7668C10.7001 23.4728 10.4519 23.2138 10.2129 22.9896C8.94946 21.8042 7.69536 21.3078 7.64258 21.2872C7.20239 21.1157 6.93662 21.7983 7.37681 21.9697C7.38838 21.9742 8.55054 22.4342 9.71172 23.5237C10.0827 23.8718 10.4094 24.2408 10.6926 24.6296C9.88125 24.795 8.21275 24.922 6.67285 23.7084Z" fill="#060606"/>
</g>
<path d="M26.596 7.514H51.524L39.06 34.532L26.596 7.514ZM39.06 31.188L49.358 8.92H28.8L39.06 31.188ZM78.7409 27.274V34H58.6009V7.552H60.0069V27.274H78.7409Z" fill="#85AA18"/>
<defs>
<clipPath id="clip0_144_682">
<rect width="25" height="25" fill="white" transform="translate(0 6.5)"/>
</clipPath>
</defs>
</svg>
